<svg width="695" height="149" viewBox="0 0 695 149" fill="none" xmlns="http://www.w3.org/2000/svg">
<path d="M639.207 78.8246V21H694.819V26.9005H646.287V45.782H694.819V51.6825H646.287V71.7441H694.819V78.8246H639.207Z" fill="black"/>
<path d="M565.893 21H603.804C609.336 21 613.786 21.2459 617.154 21.7376C620.547 22.2293 623.116 23.0775 624.861 24.2821C626.607 25.4868 627.787 27.134 628.402 29.2238C629.016 31.3135 629.323 33.9565 629.323 37.1525V38.6277C629.323 41.5779 628.967 44.1225 628.254 46.2614C627.566 48.3757 626.226 50.0967 624.234 51.4243C622.243 52.7273 619.293 53.6493 615.384 54.1902L627.701 78.8246H620.62L608.561 54.7065C608.069 54.731 607.553 54.7433 607.012 54.7433C606.496 54.7433 605.955 54.7433 605.39 54.7433H572.974V78.8246H565.893V21ZM572.974 48.6216H604.283C608.487 48.6216 611.794 48.4864 614.204 48.2159C616.637 47.9209 618.42 47.4169 619.551 46.7039C620.706 45.991 621.444 44.983 621.763 43.6799C622.083 42.3769 622.243 40.6928 622.243 38.6277V37.1525C622.243 34.8169 622.022 32.973 621.579 31.6209C621.137 30.2687 620.251 29.273 618.924 28.6337C617.596 27.9945 615.617 27.5889 612.987 27.4168C610.356 27.2201 606.84 27.1217 602.439 27.1217H572.974V48.6216Z" fill="black"/>
<path d="M512.9 78.8246C507.368 78.8246 502.82 78.4436 499.255 77.6814C495.69 76.9439 492.9 75.5671 490.884 73.5511C488.892 71.5351 487.491 68.634 486.68 64.8479C485.893 61.0618 485.499 56.1324 485.499 50.0598V21H492.58V50.0598C492.58 54.2393 492.727 57.7059 493.023 60.4594C493.318 63.213 493.871 65.4134 494.682 67.0606C495.493 68.7078 496.649 69.9371 498.149 70.7484C499.673 71.5597 501.64 72.0883 504.049 72.3341C506.458 72.58 509.409 72.7029 512.9 72.7029H526.25C529.765 72.7029 532.716 72.58 535.1 72.3341C537.51 72.0883 539.464 71.5597 540.964 70.7484C542.488 69.9371 543.656 68.7078 544.467 67.0606C545.279 65.4134 545.832 63.213 546.127 60.4594C546.422 57.7059 546.569 54.2393 546.569 50.0598V21H553.65V50.0598C553.65 56.1324 553.244 61.0618 552.433 64.8479C551.646 68.634 550.245 71.5351 548.229 73.5511C546.237 75.5671 543.459 76.9439 539.894 77.6814C536.33 78.4436 531.781 78.8246 526.25 78.8246H512.9Z" fill="black"/>
<path d="M441.615 78.8246V26.9005H413.292V21H477.017V26.9005H448.695V78.8246H441.615Z" fill="black"/>
<path d="M364.06 78.8246C358.529 78.8246 353.98 78.4436 350.415 77.6814C346.851 76.9439 344.06 75.5671 342.044 73.5511C340.053 71.5351 338.651 68.634 337.84 64.8479C337.053 61.0618 336.66 56.1324 336.66 50.0598V21H343.741V50.0598C343.741 54.2393 343.888 57.7059 344.183 60.4594C344.478 63.213 345.031 65.4134 345.843 67.0606C346.654 68.7078 347.809 69.9371 349.309 70.7484C350.833 71.5597 352.8 72.0883 355.21 72.3341C357.619 72.58 360.569 72.7029 364.06 72.7029H377.41C380.926 72.7029 383.876 72.58 386.261 72.3341C388.67 72.0883 390.625 71.5597 392.124 70.7484C393.649 69.9371 394.817 68.7078 395.628 67.0606C396.439 65.4134 396.992 63.213 397.287 60.4594C397.582 57.7059 397.73 54.2393 397.73 50.0598V21H404.81V50.0598C404.81 56.1324 404.405 61.0618 403.593 64.8479C402.807 68.634 401.405 71.5351 399.389 73.5511C397.398 75.5671 394.62 76.9439 391.055 77.6814C387.49 78.4436 382.942 78.8246 377.41 78.8246H364.06Z" fill="black"/>
<path d="M275 78.8246V21H328.399V26.9005H282.081V45.782H326.297V51.6825H282.081V78.8246H275Z" fill="black"/>
<path d="M545.857 145.5V121.898L513.994 88.8555H523.435L549.397 116.588L575.359 88.8555H584.8L552.937 121.898V145.5H545.857Z" fill="black"/>
<path d="M454.234 145.5L487.277 88.8555H496.718L529.76 145.5H521.5L514.419 132.519H469.576L462.495 145.5H454.234ZM473.116 126.619H510.879L491.997 93.5758L473.116 126.619Z" fill="black"/>
<path d="M374.829 145.5L346.986 88.8555H355.136L379.549 139.489L402.561 88.8555H410.822L433.833 139.489L455.886 88.8555H464.036L438.554 145.5H429.113L406.691 95.9729L384.269 145.5H374.829Z" fill="black"/>
<path d="M43.8887 149H0L42.7998 84.4502H0.738281V81.7148H40.2002V18.8057H0.0585938V16.0703H40.2002V0H43.8887V149ZM131.367 16.0703H131.666V149H87.7773L130.577 84.4502H47.5771V81.7148H130.8L127.745 76.8965L89.2275 18.8057H47.5771V16.0703H127.679V0.273438H131.367V16.0703ZM175.555 149H135.354V88.3701L175.555 149ZM219.074 149H175.555L216.117 87.8242L218.221 84.4502H135.354V81.7148H215.663V18.8057H174.104L135.354 77.2461V16.0703H215.663V0.273438H219.074V149ZM263.332 149H222.763V87.8135L263.332 149ZM87.7773 149H47.5771V88.3701L87.7773 149ZM262.595 84.4502H222.763V81.7148H262.595V84.4502ZM261.915 18.8057H222.763V16.0703H261.915V18.8057Z" fill="black"/>
</svg>
